HIERARCHY
ROOT Hips
{
	OFFSET 0.000000 0.000000 0.000000
	CHANNELS 6 Xposition Yposition Zposition Xrotation Yrotation Zrotation
	JOINT LeftUpLeg_virtual
	{
		OFFSET 0.000000 0.000000 0.000000
		CHANNELS 3 Xrotation Yrotation Zrotation
		JOINT LeftUpLeg
		{
			OFFSET 11.394100 -6.187798 -0.413800
			CHANNELS 3 Xrotation Yrotation Zrotation
			JOINT LeftLeg
			{
				OFFSET 0.430247 -32.302673 3.732800
				CHANNELS 3 Xrotation Yrotation Zrotation
				JOINT LeftFoot
				{
					OFFSET -0.430247 -48.264931 -6.423300
					CHANNELS 3 Xrotation Yrotation Zrotation
					JOINT LeftToeBase
					{
						OFFSET 4.230900 -16.068199 23.438400
						CHANNELS 3 Xrotation Yrotation Zrotation
						JOINT LeftToe_End
						{
							OFFSET 4.510700 0.695400 19.974600
							CHANNELS 3 Xrotation Yrotation Zrotation
							End Site
							{
								OFFSET 0 0 0
							}
						}
					}
				}
			}
		}
	}
	JOINT RightUpLeg_virtual
	{
		OFFSET 0.000000 0.000000 0.000000
		CHANNELS 3 Xrotation Yrotation Zrotation
		JOINT RightUpLeg
		{
			OFFSET -11.333700 -6.187798 -0.413800
			CHANNELS 3 Xrotation Yrotation Zrotation
			JOINT RightLeg
			{
				OFFSET -0.430392 -32.302628 3.733000
				CHANNELS 3 Xrotation Yrotation Zrotation
				JOINT RightFoot
				{
					OFFSET 0.430392 -48.264973 -6.423500
					CHANNELS 3 Xrotation Yrotation Zrotation
					JOINT RightToeBase
					{
						OFFSET -4.230900 -16.068199 23.438400
						CHANNELS 3 Xrotation Yrotation Zrotation
						JOINT RightToe_End
						{
							OFFSET -4.510700 0.695400 19.974600
							CHANNELS 3 Xrotation Yrotation Zrotation
							End Site
							{
								OFFSET 0 0 0
							}
						}
					}
				}
			}
		}
	}
	JOINT Spine_virtual
	{
		OFFSET 0.000000 0.000000 0.000000
		CHANNELS 3 Xrotation Yrotation Zrotation
		JOINT Spine
		{
			OFFSET -0.002400 12.777504 0.315300
			CHANNELS 3 Xrotation Yrotation Zrotation
			JOINT Spine1
			{
				OFFSET -0.002067 5.816869 0.032633
				CHANNELS 3 Xrotation Yrotation Zrotation
				JOINT Spine1_split
				{
					OFFSET -0.002067 5.816869 0.032633
					CHANNELS 3 Xrotation Yrotation Zrotation
					JOINT Spine2
					{
						OFFSET -0.002067 5.816869 0.032633
						CHANNELS 3 Xrotation Yrotation Zrotation
						JOINT Neck_virtual
						{
							OFFSET 0.000000 0.000000 0.000000
							CHANNELS 3 Xrotation Yrotation Zrotation
							JOINT Neck
							{
								OFFSET -0.003700 21.199493 -0.826900
								CHANNELS 3 Xrotation Yrotation Zrotation
								JOINT Head
								{
									OFFSET 0.000000 20.442200 4.834800
									CHANNELS 3 Xrotation Yrotation Zrotation
									JOINT HeadTop_End
									{
										OFFSET 0.000000 34.668396 4.968400
										CHANNELS 3 Xrotation Yrotation Zrotation
										End Site
										{
											OFFSET 0 0 0
										}
									}
								}
							}
						}
						JOINT LeftShoulder_virtual
						{
							OFFSET 0.000000 0.000000 0.000000
							CHANNELS 3 Xrotation Yrotation Zrotation
							JOINT LeftShoulder
							{
								OFFSET 3.288150 8.794197 -1.372250
								CHANNELS 3 Xrotation Yrotation Zrotation
								JOINT LeftShoulder_split
								{
									OFFSET 3.288150 8.794197 -1.372250
									CHANNELS 3 Xrotation Yrotation Zrotation
									JOINT LeftArm
									{
										OFFSET 11.953299 -2.279007 -0.146200
										CHANNELS 3 Xrotation Yrotation Zrotation
										JOINT LeftForeArm
										{
											OFFSET 18.448900 0.000000 0.000000
											CHANNELS 3 Xrotation Yrotation Zrotation
											JOINT LeftHand
											{
												OFFSET 29.527798 0.000000 0.000000
												CHANNELS 3 Xrotation Yrotation Zrotation
												End Site
												{
													OFFSET 0 0 0
												}
											}
										}
									}
								}
							}
						}
						JOINT RightShoulder_virtual
						{
							OFFSET 0.000000 0.000000 0.000000
							CHANNELS 3 Xrotation Yrotation Zrotation
							JOINT RightShoulder
							{
								OFFSET -3.249400 8.794197 -1.372250
								CHANNELS 3 Xrotation Yrotation Zrotation
								JOINT RightShoulder_split
								{
									OFFSET -3.249400 8.794197 -1.372250
									CHANNELS 3 Xrotation Yrotation Zrotation
									JOINT RightArm
									{
										OFFSET -11.953299 -2.279007 -0.146200
										CHANNELS 3 Xrotation Yrotation Zrotation
										JOINT RightForeArm
										{
											OFFSET -18.448900 0.000000 0.000000
											CHANNELS 3 Xrotation Yrotation Zrotation
											JOINT RightHand
											{
												OFFSET -29.527802 0.000000 0.000000
												CHANNELS 3 Xrotation Yrotation Zrotation
												End Site
												{
													OFFSET 0 0 0
												}
											}
										}
									}
								}
							}
						}
					}
				}
			}
		}
	}
}
MOTION
Frames: 5
Frame Time: 0.03333333
-0.646787 91.203194 0.869884 0.000000 0.000000 0.000000 -4.183978 -15.368364 -2.246453 -38.013339 16.726416 12.822381 48.235219 0.419209 10.936991 -12.862582 2.455262 -7.573423 -0.292542 -0.143251 -1.577697 0.000000 0.000000 0.000000 -4.897186 -13.673888 -1.944025 -35.266046 -22.113762 -12.717387 48.645973 -6.262822 -14.237440 -10.082753 -0.872693 12.023068 -3.515373 1.111673 -1.147366 0.000000 0.000000 0.000000 -3.140758 -17.174007 -2.205759 4.354815 2.716820 2.351653 2.841245 2.020528 -0.040980 1.648931 -0.619196 0.176032 0.000000 0.000000 0.000000 2.806350 1.775061 -0.016945 1.065548 -0.192251 4.536671 0.240773 9.710572 1.318631 0.000000 0.000000 0.000000 2.729625 1.963809 -0.225976 -0.029012 -4.027112 17.146141 -1.959288 -0.051063 -0.541690 -66.889750 -43.358136 -62.490364 -0.945727 -34.266632 0.741507 0.000000 0.000000 0.000000 3.229858 1.945719 -0.079912 -0.352672 -3.430940 -5.201547 0.882156 0.881734 0.616278 -104.044408 58.808564 95.588443 -1.496933 29.815213 0.421418 0.000000 0.000000 0.000000 
-0.668568 91.141518 0.863235 0.000000 0.000000 0.000000 -4.122690 -15.403282 -2.199467 -38.089267 16.771617 12.734375 48.139573 0.404498 10.974618 -12.787869 2.411074 -7.614001 -0.321585 -0.116912 -1.601414 0.000000 0.000000 0.000000 -4.893970 -13.651873 -1.903486 -35.233821 -22.174146 -12.774510 48.926766 -6.324814 -14.177490 -10.333064 -0.871749 12.052408 -3.028569 1.090073 -1.269140 0.000000 0.000000 0.000000 -3.151745 -17.056043 -2.261922 4.361696 2.689129 2.285732 2.856449 2.013822 -0.072896 1.541557 -0.316670 0.049208 0.000000 0.000000 0.000000 2.729922 1.754037 -0.042381 0.919524 -0.313754 4.572705 0.442870 9.748788 1.309044 0.000000 0.000000 0.000000 2.741700 1.943061 -0.240329 -0.083248 -3.883348 17.065569 -1.964510 -0.048949 -0.433770 -66.812699 -43.571003 -62.579491 -0.898930 -34.555611 0.801573 0.000000 0.000000 0.000000 3.293409 1.947610 -0.098034 -0.330583 -3.339014 -5.298159 0.875660 0.837183 0.595503 -104.037940 59.327235 95.759587 -1.368437 29.547812 0.386464 0.000000 0.000000 0.000000 
-0.671673 91.093727 0.853947 0.000000 0.000000 0.000000 -4.028726 -15.518767 -2.107355 -38.198711 16.858410 12.605664 48.045367 0.393579 11.094238 -12.553143 2.301980 -7.757427 -0.287943 -0.072913 -1.675236 0.000000 0.000000 0.000000 -4.870054 -13.828260 -1.820468 -35.248933 -22.204516 -12.839409 49.051680 -6.407891 -14.114314 -10.343904 -0.925230 12.124579 -2.927472 0.995608 -1.405589 0.000000 0.000000 0.000000 -3.185472 -16.927893 -2.294643 4.284403 2.625107 2.163888 2.809184 2.046071 -0.117197 1.311237 -0.316071 -0.068312 0.000000 0.000000 0.000000 2.679553 1.778436 -0.090487 0.809464 -0.515215 4.774990 0.868335 9.599266 1.477863 0.000000 0.000000 0.000000 2.740753 1.964662 -0.276195 -0.166430 -3.591986 16.898247 -1.878420 -0.041152 -0.422550 -66.602056 -44.050779 -62.616552 -0.940231 -35.028051 0.748192 0.000000 0.000000 0.000000 3.323644 1.983353 -0.129332 -0.260406 -3.115784 -5.454508 0.685612 0.764854 0.402220 -103.806506 59.987338 96.058592 -1.203073 29.348295 0.309522 0.000000 0.000000 0.000000 
-0.663868 91.086716 0.849239 0.000000 0.000000 0.000000 -3.913527 -15.748219 -2.003519 -38.324198 16.990685 12.520850 47.912418 0.408857 11.257171 -12.258725 2.173548 -7.926604 -0.200494 -0.012455 -1.771476 0.000000 0.000000 0.000000 -4.766792 -14.183223 -1.720138 -35.280932 -22.165340 -12.847820 48.970397 -6.478649 -14.073964 -10.105449 -0.997348 12.193228 -3.221794 0.842010 -1.437752 0.000000 0.000000 0.000000 -3.209811 -16.907090 -2.295307 4.125213 2.529392 2.033324 2.706552 2.090746 -0.166772 1.006089 -0.572559 -0.030524 0.000000 0.000000 0.000000 2.649907 1.831430 -0.147667 0.739770 -0.752793 5.089485 1.368947 9.369645 1.770399 0.000000 0.000000 0.000000 2.713116 2.011808 -0.328439 -0.265444 -3.196719 16.629996 -1.678143 -0.069042 -0.497395 -66.333001 -44.802411 -62.718854 -1.021448 -35.459938 0.588548 0.000000 0.000000 0.000000 3.313049 2.033121 -0.166665 -0.150683 -2.804013 -5.669644 0.490572 0.652577 0.206967 -103.384469 60.616010 96.417361 -1.029273 29.306576 0.207508 0.000000 0.000000 0.000000 
-0.660297 91.106964 0.856480 0.000000 0.000000 0.000000 -3.816876 -16.085840 -1.928382 -38.475576 17.137278 12.506633 47.789843 0.466870 11.429785 -11.939446 2.089331 -8.038497 -0.069409 0.061073 -1.860052 0.000000 0.000000 0.000000 -4.565485 -14.623351 -1.639637 -35.298127 -22.025174 -12.745253 48.770440 -6.573512 -14.060952 -9.779141 -1.081198 12.076503 -3.389324 0.651599 -1.268399 0.000000 0.000000 0.000000 -3.121392 -17.034389 -2.258762 3.914248 2.428818 1.929653 2.571833 2.125150 -0.211428 0.887475 -0.870500 0.080371 0.000000 0.000000 0.000000 2.625427 1.877608 -0.198530 0.691846 -0.975955 5.391990 1.755107 9.161411 2.104222 0.000000 0.000000 0.000000 2.650168 2.055167 -0.382331 -0.377174 -2.748598 16.312554 -1.588436 -0.094618 -0.653017 -66.111710 -45.762510 -62.928124 -1.067455 -35.775663 0.407607 0.000000 0.000000 0.000000 3.252024 2.071549 -0.200022 -0.021298 -2.446515 -5.924732 0.310718 0.505421 0.011906 -102.936060 61.066085 96.737977 -0.889118 29.420644 0.156372 0.000000 0.000000 0.000000 
